<svg width="80" height="35" viewBox="0 0 80 35" fill="none" xmlns="http://www.w3.org/2000/svg">
<path fill-rule="evenodd" clip-rule="evenodd" d="M50.6763 16.0261C54.4019 18.9608 60.945 25.6521 54.9583 29.8069C51.1484 32.4501 44.546 32.6399 41.0538 29.3015C36.6773 25.1173 40.296 19.3606 43.8963 16.1695C44.9325 15.2504 46.0484 14.4129 47.2156 13.6357C48.4129 14.3664 49.5732 15.1573 50.6763 16.0261ZM79.4385 1.76864C68.7241 1.86515 57.1638 4.47818 47.718 10.0017C45.5473 8.82728 43.402 7.87904 41.5511 7.1793C30.7981 3.11532 17.4308 2.16775 6.25051 4.98829C5.02882 5.29694 4.9202 6.81838 5.61973 7.58203C5.18201 7.20364 4.74884 6.81974 4.32021 6.43032C5.38049 5.35362 6.57584 4.4776 7.97463 3.7637C8.82954 3.32774 9.86161 3.11081 10.668 2.61705C11.1484 2.32308 11.0554 1.93242 11.6225 1.68335C11.8034 1.60392 11.8424 1.31484 11.6109 1.26537C10.9769 1.13039 10.6864 0.666169 10.0466 0.557768C9.03885 0.386577 7.35703 0.967211 6.44706 1.31217C4.18081 2.17125 2.2252 3.61402 0.574052 5.36847C-0.115342 6.10146 0.0274232 7.15522 0.665489 7.85464C2.22944 9.56948 4.0369 11.0625 5.91555 12.4189C7.54347 13.5936 9.31693 15.0334 11.3178 15.4141C12.8864 15.7133 13.8782 13.8654 12.7612 12.722C11.3985 11.3266 9.44813 10.5327 7.86624 9.38477C7.18796 8.89272 6.5443 8.36676 5.91142 7.82858C6.13855 7.9663 6.41365 8.04126 6.73502 8.0181C17.118 7.269 26.9657 6.27786 37.1602 9.25212C39.6644 9.98167 42.1165 10.9297 44.4532 12.103C44.2572 12.2401 44.0536 12.3699 43.8586 12.5101C37.4589 17.1344 31.6848 27.2176 40.4244 32.8736C46.6271 36.8889 60.3921 35.2338 60.6528 25.9409C60.8196 20.0035 55.9677 15.1267 50.5246 11.6533C53.5006 10.0441 56.662 8.72241 59.6925 7.49475C66.0094 4.93459 72.725 3.26818 79.4486 2.20225C79.7152 2.15975 79.7267 1.76584 79.4385 1.76864Z" fill="black"/>
</svg>
