<svg width="68" height="67" viewBox="0 0 68 67" fill="none" xmlns="http://www.w3.org/2000/svg">
<path d="M36.9496 59.3829C37.1614 59.9456 37.7297 60.2911 38.3267 60.2204C38.9237 60.1496 39.3955 59.6808 39.4699 59.0842C40.2657 52.7062 45.6031 38.2079 60.4513 31.7446C61.0189 31.4975 61.3354 30.8861 61.2094 30.28C61.0834 29.674 60.5495 29.2394 59.9304 29.239C52.5401 29.2348 46.4868 25.8134 41.8774 21.4348C37.2579 17.0467 34.1737 11.7721 32.7646 8.29803C32.5412 7.74729 31.9744 7.41658 31.385 7.49313C30.7957 7.56968 30.3321 8.0342 30.2568 8.62373C27.9798 26.4534 15.314 34.2493 9.44136 35.9077C8.82652 36.0814 8.42729 36.674 8.49739 37.309C8.56749 37.944 9.08637 38.4353 9.72427 38.4707C16.2674 38.8332 30.9816 43.5308 36.9496 59.3829Z" fill="#B3B3B3"/>
<path d="M56.9727 29.3249C57.2565 29.2013 57.4147 28.8957 57.3517 28.5926C57.2887 28.2896 57.0217 28.0723 56.7122 28.0721C49.1058 28.0677 42.8996 24.5435 38.2095 20.0882C33.5142 15.6281 30.3807 10.2724 28.9411 6.72322C28.8295 6.44784 28.546 6.28249 28.2514 6.32077C27.9567 6.35904 27.7249 6.5913 27.6873 6.88607C25.3705 25.0265 12.4727 33.0017 6.40113 34.7162C6.09371 34.803 5.8941 35.0993 5.92914 35.4169C5.96419 35.7344 6.22363 35.98 6.54258 35.9977C13.2501 36.3693 28.255 41.1603 34.3434 57.3322C34.4493 57.6135 34.7334 57.7863 35.0319 57.7509C35.3304 57.7156 35.5663 57.4811 35.6035 57.1829C36.4172 50.6619 41.8436 35.9104 56.9727 29.3249Z" fill="#FC75FF" stroke="black" stroke-width="1.30707" stroke-linejoin="round"/>
<path d="M42.6303 30.9443C36.1358 34.9157 33.6875 41.9019 33.004 45.1434C30.8368 40.997 25.2772 34.4003 20.3449 33.7336C22.3101 33.0756 27.3093 27.0548 29.6563 19.6218C33.9071 27.124 39.9427 30.2202 42.6303 30.9443Z" fill="white" stroke="black" stroke-width="1.30707" stroke-linecap="round" stroke-linejoin="round"/>
</svg>
