<?xml version="1.0" encoding="iso-8859-1"?>
<!-- Uploaded to: SVG Repo, www.svgrepo.com, Generator: SVG Repo Mixer Tools -->
<!DOCTYPE svg PUBLIC "-//W3C//DTD SVG 1.1//EN" "http://www.w3.org/Graphics/SVG/1.1/DTD/svg11.dtd">
<svg height="800px" width="800px" version="1.1" id="Capa_1" xmlns="http://www.w3.org/2000/svg" xmlns:xlink="http://www.w3.org/1999/xlink" 
	 viewBox="0 0 187.336 187.336" xml:space="preserve">
<g>
	<defs>
		<circle id="SVGID_1_" cx="93.668" cy="93.667" r="93.668"/>
	</defs>
	<clipPath id="SVGID_2_">
		<use xlink:href="#SVGID_1_"  style="overflow:visible;"/>
	</clipPath>
	<circle style="clip-path:url(#SVGID_2_);fill:#8F8FCC;" cx="93.668" cy="93.667" r="93.668"/>
	<g style="clip-path:url(#SVGID_2_);">
		<g>
			<g>
				<path style="fill:#FFB37F;" d="M50.266,189.701c2.333-4.688,5.124-9.151,8.278-13.316c9.313-12.295,19.373-18.766,19.556-18.883
					c3.884-2.441,5.061-7.568,2.628-11.46c-2.437-3.898-7.574-5.083-11.472-2.647c-0.501,0.313-12.38,7.825-23.555,22.373
					c-5.54,7.212-10.144,15.351-13.582,23.935H50.266z"/>
				<path style="fill:#FFC695;" d="M104.828,157.24c0.183,0.115,10.243,6.587,19.555,18.881c3.231,4.266,6.039,8.809,8.369,13.58
					h17.98c-3.308-8.6-7.779-16.74-13.506-24.196c-11.176-14.549-23.055-22.061-23.555-22.374
					c-3.898-2.436-9.035-1.252-11.472,2.649C99.766,149.672,100.943,154.797,104.828,157.24z"/>
			</g>
			<path style="fill:#F29555;" d="M128.94,189.701c-1.354-29.724-7.027-37.941-11.809-43.159
				c-4.11-4.485-18.107-11.254-25.454-9.281c-7.346-1.973-21.343,4.796-25.453,9.281c-4.782,5.217-10.456,13.434-11.809,43.159
				H128.94z"/>
			<g>
				<path style="fill:#3A2C24;" d="M50.266,189.701c2.333-4.688,5.124-9.151,8.278-13.316c6.717-8.866,13.82-14.704,17.328-17.314
					c-0.299-0.681-0.595-1.364-0.897-2.044c-0.088-0.173-0.177-0.349-0.264-0.521c-0.331-0.59-0.664-1.179-0.993-1.769
					c-2.312-3.235-4.409-6.603-6.335-10.079c-3.85,2.717-12.979,9.778-21.683,21.109c-5.54,7.212-10.144,15.351-13.582,23.935
					H50.266z"/>
				<path style="fill:#3A2C24;" d="M124.383,176.122c3.231,4.266,6.039,8.809,8.369,13.58h17.97
					c-3.305-8.6-7.768-16.741-13.496-24.196c-6.729-8.76-13.709-14.963-18.31-18.586c-2.566,5.14-4.951,10.361-7.234,15.627
					C115.314,165.705,119.933,170.246,124.383,176.122z"/>
			</g>
			<path style="fill:#E1F7F9;" d="M128.944,189.701c-1.345-30.02-7.025-38.769-11.813-43.992c-0.476-0.519-0.255-0.235-0.969-0.798
				c-14.507,10.431-34.713,11.545-49.354-0.615c-0.209,0.195-0.408,0.389-0.583,0.58c-4.793,5.229-10.48,14.508-11.818,44.824
				H128.944z"/>
			<path style="fill:#3A2C24;" d="M68.993,189.701c-1.51-14.748-2.73-29.642-3.537-43.964c-4.646,5.339-11.13,14.44-11.896,43.964
				H68.993z"/>
			<polygon style="fill:#4C3F38;" points="76.353,189.701 75.63,137.658 54.539,142.653 63.426,189.701 			"/>
			<path style="fill:#3A2C24;" d="M129.657,189.701c-0.726-30.515-6.881-37.91-11.694-43.159c-0.473-0.517-1.916-1.066-2.627-1.626
				c-0.413,14.953-1.342,29.872-2.416,44.784H129.657z"/>
			<polygon style="fill:#4C3F38;" points="119.469,189.701 128.356,142.654 107.266,137.658 106.543,189.701 			"/>
			<g>
				<g>
					
						<ellipse transform="matrix(0.9926 -0.1218 0.1218 0.9926 -10.3221 17.7614)" style="fill:#FFB37F;" cx="140.079" cy="93.288" rx="11.378" ry="14.152"/>
					
						<ellipse transform="matrix(0.9998 -0.0177 0.0177 0.9998 -1.6413 0.7484)" style="fill:#F29555;" cx="41.564" cy="93.323" rx="11.378" ry="14.152"/>
				</g>
				<g>
					<path style="fill:#FFC695;" d="M92.516,40.947c-12.565,0.582-25.603,4.046-34.965,10.436
						c-13.793,9.416-17.563,28.963-16.852,44.122c2.185,46.623,39.899,48.043,51.818,49.002V40.947z"/>
					<path style="fill:#FFC695;" d="M91.671,40.947c12.565,0.582,24.771,4.046,34.134,10.436
						c13.794,9.416,16.115,28.976,15.187,44.122c-1.258,20.507-9.859,49.369-49.321,49.002V40.947z"/>
				</g>
			</g>
			<g>
				<circle style="fill:#333331;" cx="66.598" cy="96.468" r="5.401"/>
				<circle style="fill:#333331;" cx="116.756" cy="96.468" r="5.4"/>
			</g>
			<path style="fill:#F29555;" d="M99.447,108.272c0,2.912-1.944,5.272-4.341,5.272h-6.856c-2.398,0-4.343-2.36-4.343-5.272l0,0
				c0-2.912,1.945-5.272,4.343-5.272h6.856C97.503,102.999,99.447,105.36,99.447,108.272L99.447,108.272z"/>
			<path style="fill:#F29555;" d="M102.948,118.836c-1.364-0.169-2.603,0.79-2.785,2.146c-0.097,0.648-1.109,5.808-8.486,6.159
				c-7.377-0.351-8.389-5.511-8.486-6.159c-0.182-1.356-1.42-2.316-2.785-2.146c-1.368,0.171-2.339,1.42-2.169,2.789
				c0.452,3.612,3.852,10.08,13.301,10.491v0.02c0.049-0.001,0.091-0.008,0.139-0.01c0.048,0.002,0.09,0.009,0.14,0.01v-0.02
				c9.448-0.411,12.848-6.879,13.3-10.491C105.287,120.257,104.316,119.007,102.948,118.836z"/>
		</g>
		<path style="fill:#3A2C24;" d="M142.612,67.465c-0.154-4.117-0.873-8.841-2.204-12.766c-3.492-10.283-11.137-18.09-21.678-21.492
			c-8.467-2.732-45.719-2.471-54.186,0.261c-10.54,3.402-18.186,11.209-21.677,21.491c-1.332,3.925-2.051,8.65-2.204,12.766
			c-0.163,4.36,2.22,13.876,2.22,13.876c2.775-16.094,10.463-19.916,22.187-18.871c9.864,0.88,16.655,5.998,27.125,5.466
			c0.004-0.079,0.008-0.161,0.012-0.24c9.834,0.126,16.471-4.971,25.996-5.486c15.701-0.85,23.297,18.315,23.297,18.315
			C142.619,76.465,142.774,71.824,142.612,67.465z"/>
		<path style="fill:#3A2C24;" d="M42.884,53.851c12.348-25.039,35.563-27.665,58.829-37.865c5.888-2.582,6.569-4.496,12.089,0.232
			c12.866,11.02,22.516,25.792,27.319,42.073"/>
	</g>
</g>
</svg>