<svg width="71" height="61" viewBox="0 0 71 61" fill="none" xmlns="http://www.w3.org/2000/svg">
<path d="M64.6133 39.5709L65.2181 40.06C65.3565 39.8889 65.4159 39.6672 65.3816 39.4498L64.6133 39.5709ZM64.6133 39.5709C65.2181 40.06 65.2179 40.0603 65.2176 40.0607L65.2167 40.0618L65.214 40.0651L65.2045 40.0767L65.1696 40.1191C65.1393 40.1556 65.095 40.2086 65.037 40.2768C64.921 40.4132 64.7501 40.6104 64.527 40.8583C64.0809 41.3541 63.4254 42.0534 62.5812 42.8753C60.8942 44.5177 58.4468 46.6565 55.4052 48.6394C49.3325 52.5984 40.7991 55.9912 31.2075 53.4212C21.6159 50.8511 15.9223 43.6461 12.6426 37.1812C11 33.9432 9.94988 30.8672 9.3101 28.6013C8.98996 27.4675 8.77189 26.5341 8.63343 25.8817C8.5642 25.5554 8.51483 25.2992 8.48254 25.1231C8.4664 25.035 8.45452 24.9669 8.44656 24.9202L8.43751 24.8661L8.43511 24.8513L8.43442 24.847L8.43421 24.8456C8.43413 24.8452 8.43407 24.8448 9.20242 24.7237M64.6133 39.5709C65.3816 39.4498 65.3816 39.4494 65.3815 39.449L65.3813 39.4476L65.3806 39.4433L65.3782 39.4285L65.3691 39.3744C65.3612 39.3277 65.3493 39.2596 65.3332 39.1715C65.3009 38.9954 65.2515 38.7392 65.1823 38.4129C65.0438 37.7605 64.8257 36.8271 64.5056 35.6933C63.8658 33.4274 62.8157 30.3514 61.1731 27.1134C57.8934 20.6485 52.1997 13.4435 42.6082 10.8734C33.0166 8.30337 24.4832 11.6962 18.4105 15.6552C15.3689 17.6381 12.9215 19.7769 11.2345 21.4193C10.3903 22.2412 9.7348 22.9405 9.28868 23.4363C9.06557 23.6842 8.89471 23.8814 8.77869 24.0178C8.72068 24.086 8.67636 24.139 8.64608 24.1755L8.6112 24.2179L8.60172 24.2295L8.59899 24.2328L8.59812 24.2339C8.59783 24.2343 8.59759 24.2346 9.20242 24.7237M9.20242 24.7237L8.43407 24.8448C8.39979 24.6274 8.45921 24.4057 8.59759 24.2346L9.20242 24.7237Z" fill="#B3B3B3" stroke="#B3B3B3" stroke-width="1.55568" stroke-linejoin="round"/>
<path d="M62.2085 35.407L62.8133 35.8961C62.9517 35.725 63.0111 35.5032 62.9768 35.2858L62.2085 35.407ZM62.2085 35.407C62.8133 35.8961 62.8131 35.8964 62.8128 35.8968L62.8119 35.8978L62.8092 35.9012L62.7997 35.9128L62.7648 35.9551C62.7345 35.9917 62.6902 36.0447 62.6322 36.1128C62.5162 36.2492 62.3453 36.4464 62.1222 36.6944C61.6761 37.1902 61.0206 37.8895 60.1764 38.7113C58.4894 40.3537 56.042 42.4926 53.0004 44.4755C46.9277 48.4344 38.3943 51.8273 28.8027 49.2572C19.2112 46.6872 13.5175 39.4822 10.2378 33.0173C8.59518 29.7793 7.5451 26.7033 6.90532 24.4374C6.58517 23.3036 6.3671 22.3702 6.22865 21.7177C6.15941 21.3915 6.11004 21.1352 6.07776 20.9591C6.06161 20.8711 6.04973 20.803 6.04177 20.7562L6.03272 20.7021L6.03032 20.6873L6.02964 20.6831L6.02942 20.6817C6.02935 20.6812 6.02929 20.6809 6.79763 20.5597M62.2085 35.407C62.9768 35.2858 62.9768 35.2855 62.9767 35.285L62.9765 35.2837L62.9758 35.2794L62.9734 35.2646L62.9644 35.2105C62.9564 35.1637 62.9445 35.0957 62.9284 35.0076C62.8961 34.8315 62.8467 34.5753 62.7775 34.249C62.639 33.5965 62.4209 32.6632 62.1008 31.5293C61.461 29.2635 60.4109 26.1875 58.7683 22.9494C55.4887 16.4845 49.795 9.27954 40.2034 6.70948C30.6118 4.13943 22.0784 7.5323 16.0057 11.4912C12.9641 13.4741 10.5167 15.613 8.82972 17.2554C7.98556 18.0772 7.33002 18.7765 6.88389 19.2723C6.66079 19.5203 6.48992 19.7175 6.3739 19.8539C6.31589 19.9221 6.27158 19.9751 6.24129 20.0116L6.20641 20.0539L6.19694 20.0655L6.1942 20.0689L6.19334 20.07C6.19304 20.0703 6.19281 20.0706 6.79763 20.5597M6.79763 20.5597L6.02929 20.6809C5.99501 20.4635 6.05442 20.2417 6.19281 20.0706L6.79763 20.5597Z" fill="#44E2F8" stroke="black" stroke-width="1.55568" stroke-linejoin="round"/>
<path d="M31.1893 41.6024C38.358 43.2039 45.4713 38.1301 47.1868 30.4512C48.9022 22.7722 44.6244 15.1536 37.4557 13.5522C30.287 11.9507 23.1736 17.0245 21.4582 24.7034C19.7427 32.3823 24.0206 40.0009 31.1893 41.6024Z" fill="white" stroke="black" stroke-width="1.55568" stroke-linecap="round" stroke-linejoin="round"/>
<path d="M32.4832 35.4053C37.0575 36.4272 41.5798 33.4369 42.6194 28.7829C43.6591 24.129 40.8393 19.4984 36.2651 18.4766C31.6909 17.4547 27.1686 20.445 26.1289 25.0989C25.0892 29.7529 27.909 34.3834 32.4832 35.4053Z" fill="#FC75FF" stroke="black" stroke-width="1.55568" stroke-linecap="round" stroke-linejoin="round"/>
<ellipse cx="34.0587" cy="26.1995" rx="3.81325" ry="3.92484" transform="rotate(12.5931 34.0587 26.1995)" fill="black"/>
</svg>
